<svg xmlns="http://www.w3.org/2000/svg" viewBox="0 0 1000 600">
  <defs><linearGradient id="bg" x1="0" y1="0" x2="1" y2="1"><stop stop-color="#f1e8da"/><stop offset="1" stop-color="#d8c2a3"/></linearGradient></defs>
  <rect width="1000" height="600" fill="url(#bg)"/>
  <g transform="translate(75 130)"><path d="M30 110h230l28 300H0z" fill="#c7b89f"/><path d="M80 110c0-70 35-105 70-105s70 35 70 105" fill="none" stroke="#9e8c73" stroke-width="18"/></g>
  <g transform="translate(355 70)"><path d="M35 130h270l28 340H0z" fill="#2e2b28"/><path d="M95 130c0-85 40-125 78-125s78 40 78 125" fill="none" stroke="#1d1b19" stroke-width="20"/><rect x="123" y="175" width="88" height="50" fill="#ae8b4a"/></g>
  <g transform="translate(690 145)"><path d="M30 100h220l25 290H0z" fill="#a87043"/><path d="M75 100c0-65 35-95 70-95s70 30 70 95" fill="none" stroke="#7f4e2c" stroke-width="17"/></g>
</svg>
